<svg width="62" height="63" viewBox="0 0 62 63" fill="none" xmlns="http://www.w3.org/2000/svg">
<path d="M8.83084e-08 31.4798C0.00127854 14.5385 13.9185 0.776596 31.0307 0.798121C48.1428 0.819646 61.9923 14.5347 62 31.4684C62.0077 48.4451 48.0763 62.2324 30.9476 62.2007C13.8789 62.169 -0.00127837 48.3907 8.83084e-08 31.4798ZM60.7011 31.5114C60.7062 15.3134 47.363 2.08961 31.0281 2.10607C14.6345 2.12253 1.37818 15.2539 1.36028 31.4962C1.3411 47.712 14.6281 60.8801 31.0141 60.8852C47.3911 60.8902 60.696 47.7259 60.7011 31.5114Z" fill="white"/>
<path d="M30.9489 58.7808C15.7046 58.6731 3.39175 46.4205 3.47996 31.4481C3.56946 16.3048 15.9845 4.11163 31.1879 4.23698C46.4412 4.36233 58.6696 16.6466 58.5443 31.7178C58.4203 46.7205 46.0142 58.8871 30.9489 58.7808ZM41.9346 22.6027C41.9346 22.0595 41.9103 21.6163 41.9385 21.177C42.0318 19.7437 42.6365 19.1954 44.0876 19.1954C46.5371 19.1954 48.9866 19.1954 51.4361 19.1954C51.6599 19.1954 51.8823 19.1954 52.1457 19.1954C49.5632 14.3853 42.8602 7.95064 32.6863 7.17954C27.1685 6.76171 17.7808 9.59918 15.9347 12.386C16.9101 12.5379 17.9278 12.6405 18.9199 12.8596C22.2017 13.5851 25.1345 15.0095 27.6134 17.2886C28.4162 18.0268 29.1092 18.8447 29.4454 19.9108C29.9708 21.572 29.4134 22.8812 27.809 23.608C27.3104 23.8334 26.7696 24.0727 26.2378 24.1005C23.9059 24.2221 21.5688 24.2778 19.2331 24.3323C18.957 24.3386 18.677 24.1955 18.5018 24.1499C18.5018 23.0863 18.5338 22.1228 18.4865 21.1618C18.466 20.7515 18.186 20.4515 17.6235 20.3932C17.6235 22.8597 17.6235 25.2831 17.6235 27.718C18.2142 27.8104 19.0426 27.5774 19.0605 28.4929C19.0797 29.4843 18.1822 29.2285 17.589 29.3437C17.589 32.1609 17.589 34.9478 17.589 37.727C25.2009 31.5114 33.2782 30.7745 41.9321 35.5125C41.9321 31.5836 41.9321 27.6711 41.9321 23.6663C46.0628 23.6663 50.1308 23.6663 54.218 23.6663C54.002 22.6039 54.002 22.6039 53.0419 22.6039C49.613 22.6039 46.1829 22.6039 42.7541 22.6039C42.5036 22.6027 42.253 22.6027 41.9346 22.6027ZM9.63061 19.5841C6.98421 23.979 5.638 30.2592 7.01489 36.6976C7.77302 40.2416 10.5383 45.7988 12.1671 46.8801C12.199 46.8003 12.2361 46.7269 12.2578 46.6484C12.9226 44.311 14.0106 42.1826 15.4617 40.2277C15.6215 40.0124 15.7058 39.6921 15.7071 39.4211C15.7237 36.238 15.7186 33.0548 15.7161 29.8705C15.7161 29.6881 15.6943 29.5045 15.6828 29.3197C15.0462 29.2602 14.2407 29.4513 14.2024 28.5638C14.1602 27.5673 15.0589 27.8091 15.7173 27.7142C15.7173 26.4835 15.6828 25.2869 15.7327 24.0917C15.757 23.5067 15.6087 23.1712 15.0193 22.98C14.5194 22.8179 14.0272 22.5824 13.5887 22.2937C12.2681 21.4239 10.9743 20.5097 9.63061 19.5841ZM14.9694 49.929C15.601 45.757 17.4202 42.3384 20.5678 39.6693C23.7218 36.9951 27.4075 35.6935 31.5549 35.7822C35.5104 35.867 39.0044 37.2231 41.9755 39.8162C44.9543 42.4156 46.7148 45.7013 47.3694 49.6821C47.7861 49.2896 48.107 48.9579 48.4586 48.6628C48.7718 48.3995 48.8319 48.1399 48.7322 47.7284C46.0116 36.4355 33.0404 30.6352 22.7271 36.1506C17.9355 38.7133 14.903 42.6726 13.6028 47.9158C13.5427 48.1551 13.5248 48.5096 13.659 48.6717C14.0144 49.1022 14.4645 49.458 14.9694 49.929ZM46.4795 39.6288C46.9718 40.3391 47.3898 40.9722 47.8488 41.5761C47.951 41.7116 48.1978 41.8028 48.3793 41.804C49.87 41.8218 51.362 41.818 52.8526 41.8091C53.0061 41.8078 53.2541 41.7749 53.2988 41.6812C53.6133 41.0317 53.8844 40.3619 54.2001 39.6288C51.5627 39.6288 49.0786 39.6288 46.4795 39.6288ZM48.759 43.055C49.25 44.2996 49.7128 45.4734 50.2267 46.7788C51.0679 45.519 51.8491 44.3465 52.712 43.055C51.2648 43.055 50.0273 43.055 48.759 43.055Z" fill="white"/>
<path d="M41.2519 20.8782C41.2519 23.4573 41.2519 26.0378 41.2519 28.617C41.2046 28.66 41.1586 28.7031 41.1113 28.7474C40.7955 28.4182 40.3698 28.1421 40.1844 27.7522C39.2448 25.7757 39.2358 23.7561 40.1691 21.7746C40.3545 21.3808 40.7802 21.0972 41.096 20.7629C41.1484 20.8009 41.2008 20.8402 41.2519 20.8782Z" fill="white"/>
</svg>
