<?xml version="1.0" encoding="utf-8"?>
<!-- Generator: Adobe Illustrator 25.2.0, SVG Export Plug-In . SVG Version: 6.00 Build 0)  -->
<svg version="1.1" id="Layer_1" xmlns="http://www.w3.org/2000/svg" xmlns:xlink="http://www.w3.org/1999/xlink" x="0px" y="0px"
	 viewBox="0 0 170 155" style="enable-background:new 0 0 170 155;" xml:space="preserve">
<style type="text/css">
	.st0{fill:none;stroke:#000000;stroke-width:3.4197;stroke-linecap:round;stroke-linejoin:round;}
	.st1{fill:#FFFFFF;}
</style>
<path class="st0" d="M2,32.2v120.7l52.8-30.2l60.4,30.2l52.8-30.2V2l-52.8,30.2L54.8,2L2,32.2z"/>
<path class="st0" d="M54.8,2v120.7"/>
<path class="st0" d="M115.2,32.2v120.7"/>
<g>
	<path d="M126,18.7c-3.5-7-9.2-11-16.9-12.3c-0.6-0.1-1.3-0.2-1.9-0.2h-2.5c-1.2,0.2-2.4,0.3-3.5,0.5c-4,0.9-7.5,2.7-10.5,5.5
		c-4.1,3.8-6.5,8.5-7.1,14.1c-0.6,5.2,0.6,10,3.4,14.4c5.8,9.4,11.7,18.8,17.5,28.2c1,1.7,2.6,1.6,3.6,0c5.7-9.5,11.4-18.9,17-28.5
		C129.3,33.4,129.6,26.1,126,18.7z M121.8,38.7c-5,8.4-10.1,16.8-15.1,25.2c-0.1,0.2-0.3,0.4-0.4,0.7c-0.1-0.2-0.3-0.4-0.4-0.5
		c-5.2-8.5-10.5-16.9-15.7-25.3c-3-4.9-3.8-10.1-2.1-15.5c1.5-5,4.7-8.8,9.4-11.2c5.1-2.6,10.3-2.8,15.6-0.7
		c4.9,2,8.4,5.5,10.3,10.4C125.6,27.6,125,33.3,121.8,38.7z"/>
	<path class="st1" d="M123.3,21.7c-1.9-4.9-5.4-8.4-10.3-10.4c-5.3-2.1-10.6-1.9-15.6,0.7c-4.7,2.4-7.9,6.2-9.4,11.2
		c-1.6,5.4-0.9,10.6,2.1,15.5c5.2,8.4,10.5,16.9,15.7,25.3c0.1,0.2,0.2,0.3,0.4,0.5c0.2-0.3,0.3-0.5,0.4-0.7
		c5-8.4,10.1-16.8,15.1-25.2C125,33.3,125.6,27.6,123.3,21.7z M106,39.9c-6.2,0-11.2-5-11.3-11.2c0-6.2,5-11.2,11.2-11.3
		c6.2,0,11.2,5,11.2,11.2S112.2,39.9,106,39.9z"/>
	<path d="M105.9,17.5c-6.2,0-11.2,5.1-11.2,11.3c0,6.2,5.1,11.2,11.3,11.2c6.2,0,11.2-5,11.2-11.2S112.1,17.4,105.9,17.5z
		 M105.9,36.2c-4.1,0-7.5-3.4-7.5-7.5c0-4.2,3.4-7.5,7.6-7.5c4.1,0,7.5,3.4,7.4,7.5C113.4,32.9,110.1,36.2,105.9,36.2z"/>
	<path class="st1" d="M113.4,28.7c0,4.2-3.4,7.5-7.5,7.5c-4.1,0-7.5-3.4-7.5-7.5c0-4.2,3.4-7.5,7.6-7.5
		C110.1,21.2,113.5,24.6,113.4,28.7z"/>
</g>
</svg>
