<svg width="35" height="37" viewBox="0 0 35 37" fill="none" xmlns="http://www.w3.org/2000/svg">
<path d="M34.54 33.96L25.07 24.49C27.53 21.89 29.05 18.39 29.05 14.53C29.06 6.52 22.54 0 14.53 0C6.52 0 0 6.52 0 14.53C0 22.54 6.52 29.06 14.53 29.06C17.56 29.06 20.37 28.12 22.71 26.53L32.34 36.16C32.64 36.46 33.04 36.62 33.44 36.62C33.84 36.62 34.24 36.47 34.54 36.16C35.15 35.55 35.15 34.56 34.54 33.96ZM3.12 14.53C3.12 8.24 8.24 3.12 14.53 3.12C20.82 3.12 25.94 8.24 25.94 14.53C25.94 20.82 20.82 25.94 14.53 25.94C8.24 25.94 3.12 20.82 3.12 14.53Z" fill="#016660"/>
</svg>
